# xmcd CD database file
#
# Track frame offsets:
#	150
#	20562
#	40627
#	55626
#	79496
#	100623
#	120213
#	142961
#	155683
#	174554
#	189008
#	206387
#	229494
#	247538
#	262110
#	284844
#	308773
#	325327
#
# Disc length: 4541 seconds
#
# Revision: 2
# Processed by: cddbd v1.5.1PL0 Copyright (c) Steve Scherf et al.
# Submitted via: CDex 1.51
#
DISCID=ec11bb12
DTITLE=Various Artist - Kuschel Jazz - CD2
DYEAR=2003
DGENRE=Jazz
TTITLE0=Jazzamor - Way Back
TTITLE1=The Style Council - The Paris Match
TTITLE2=Patricia Kaas - Un Home Et Une Femme
TTITLE3=Stan Getz - Misty
TTITLE4=Andy Williams - The Look Of Love
TTITLE5=Keiko Lee - Saving All My Love For You
TTITLE6=Till Bronner - Just The Way You Are
TTITLE7=James Taylor - It's Only A Papermoon
TTITLE8=Carmen Cuesta-Loeb - Dreams
TTITLE9=Silje Nergaard - Blame It On The Sun
TTITLE10=Billy Joel - In A Sentimental Mood
TTITLE11=Chris Botti - Lisa
TTITLE12=Joy Denalane - I Cover The Waterfront
TTITLE13=Sarah Vaughan - Summertime
TTITLE14=Tony Bennet and K.D. Lang - What A Wonderful World
TTITLE15=Ann Burton - I Can't Give You Anything But Love Baby
TTITLE16=Maila feat. Eric Truffaz - Yellow Daffodils
TTITLE17=Simply Red - Ev'ry Time We Say Goodbye
EXTD=YEAR: 2003
EXTT0=
EXTT1=
EXTT2=
EXTT3=
EXTT4=
EXTT5=
EXTT6=
EXTT7=
EXTT8=
EXTT9=
EXTT10=
EXTT11=
EXTT12=
EXTT13=
EXTT14=
EXTT15=
EXTT16=
EXTT17=
PLAYORDER=
